<?xml version="1.0" encoding="UTF-8"?>
<svg xmlns="http://www.w3.org/2000/svg" xmlns:xlink="http://www.w3.org/1999/xlink" width="169px" height="43px" viewBox="0 0 169 43" version="1.1">
<g id="surface1">
<path style=" stroke:none;fill-rule:nonzero;fill:rgb(0%,0%,0%);fill-opacity:1;" d="M 9.84375 1.359375 C 9.453125 1.523438 8.777344 2.019531 8.347656 2.429688 C 5.515625 5.167969 6.234375 9.144531 9.78125 10.316406 C 11.8125 10.976562 14.707031 9.410156 15.484375 7.226562 C 16.304688 4.839844 15.445312 2.101562 13.597656 1.316406 C 12.738281 0.949219 10.746094 0.96875 9.84375 1.359375 Z M 9.84375 1.359375 "/>
<path style=" stroke:none;fill-rule:nonzero;fill:rgb(0%,0%,0%);fill-opacity:1;" d="M 142.335938 6.527344 C 140.574219 7.476562 139.875 9.207031 140.757812 10.523438 C 141.722656 11.964844 144.019531 12.109375 145.660156 10.851562 C 146.828125 9.945312 147.199219 8.980469 146.828125 7.804688 C 146.460938 6.714844 145.722656 6.136719 144.449219 6.035156 C 143.648438 5.953125 143.261719 6.054688 142.335938 6.527344 Z M 142.335938 6.527344 "/>
<path style=" stroke:none;fill-rule:nonzero;fill:rgb(0%,0%,0%);fill-opacity:1;" d="M 46.023438 7.3125 C 43.007812 7.96875 39.953125 10.214844 38.761719 12.644531 C 38.25 13.675781 37.882812 15.300781 36.710938 21.417969 C 35.933594 25.558594 35.277344 29.058594 35.277344 29.179688 C 35.277344 29.386719 36.035156 29.449219 38.433594 29.449219 L 41.574219 29.449219 L 42.148438 26.710938 C 42.988281 22.777344 42.804688 23.066406 44.464844 23.066406 L 45.859375 23.066406 L 46.3125 20.511719 C 46.558594 19.089844 46.824219 17.667969 46.886719 17.320312 L 47.027344 16.679688 L 45.550781 16.679688 C 44.753906 16.679688 44.097656 16.640625 44.097656 16.597656 C 44.097656 16.558594 44.238281 16.125 44.402344 15.628906 C 44.835938 14.414062 45.65625 13.613281 46.578125 13.46875 C 46.988281 13.40625 47.417969 13.28125 47.5625 13.199219 C 47.683594 13.117188 48.054688 11.675781 48.382812 10.027344 L 48.957031 7 L 48.117188 7.023438 C 47.644531 7.023438 46.722656 7.167969 46.023438 7.3125 Z M 46.023438 7.3125 "/>
<path style=" stroke:none;fill-rule:nonzero;fill:rgb(0%,0%,0%);fill-opacity:1;" d="M 9.023438 13.386719 C 7.382812 13.820312 5.046875 14.3125 3.816406 14.5 C 2.5625 14.683594 1.519531 14.867188 1.476562 14.929688 C 1.414062 14.972656 1.128906 16.0625 0.820312 17.339844 L 0.246094 19.667969 L 2.378906 19.730469 C 3.546875 19.75 4.511719 19.832031 4.511719 19.875 C 4.511719 19.933594 4.0625 21.5625 3.507812 23.519531 C 2.195312 28.171875 1.457031 31.550781 1.292969 33.527344 C 1.191406 34.886719 1.25 35.277344 1.640625 36.203125 C 2.195312 37.480469 3.773438 39.023438 4.882812 39.335938 C 8.347656 40.300781 12.285156 39.273438 15.257812 36.636719 L 16.40625 35.585938 L 15.648438 34.617188 C 15.21875 34.082031 14.625 33.339844 14.296875 32.972656 L 13.742188 32.292969 L 13.066406 32.785156 C 11.136719 34.269531 9.230469 34.414062 9.230469 33.09375 C 9.230469 32.886719 10.335938 28.273438 11.691406 22.859375 C 13.042969 17.421875 14.152344 12.890625 14.152344 12.789062 C 14.152344 12.355469 11.976562 12.625 9.023438 13.386719 Z M 9.023438 13.386719 "/>
<path style=" stroke:none;fill-rule:nonzero;fill:rgb(0%,0%,0%);fill-opacity:1;" d="M 23.6875 13.242188 C 22.171875 13.757812 21.105469 14.4375 19.933594 15.628906 C 18.109375 17.484375 17.71875 18.515625 16.570312 24.300781 C 16.039062 27.082031 15.585938 29.367188 15.585938 29.386719 C 15.585938 29.429688 17.0625 29.449219 18.847656 29.449219 L 22.109375 29.449219 L 22.316406 28.460938 C 22.4375 27.925781 22.828125 25.90625 23.175781 23.992188 C 24.015625 19.441406 24.078125 19.234375 24.859375 18.96875 C 25.617188 18.699219 26.457031 19.109375 26.457031 19.769531 C 26.457031 19.976562 26.089844 22.117188 25.636719 24.527344 C 25.1875 26.9375 24.816406 29.039062 24.816406 29.179688 C 24.816406 29.386719 25.515625 29.449219 28.058594 29.449219 L 31.277344 29.449219 L 32.179688 24.402344 C 33.164062 18.882812 33.164062 18.226562 32.28125 16.371094 C 31.667969 15.054688 30.703125 14.046875 29.535156 13.507812 C 28.363281 12.996094 24.941406 12.828125 23.6875 13.242188 Z M 23.6875 13.242188 "/>
<path style=" stroke:none;fill-rule:nonzero;fill:rgb(0%,0%,0%);fill-opacity:1;" d="M 56.011719 13.304688 C 53.324219 14.023438 50.105469 16.597656 48.957031 18.945312 C 47.027344 22.921875 48.28125 27.019531 51.992188 28.851562 C 56.894531 31.261719 64.175781 27.988281 66.0625 22.507812 C 66.535156 21.148438 66.574219 18.617188 66.164062 17.441406 C 65.46875 15.527344 63.722656 13.960938 61.550781 13.304688 C 60.175781 12.890625 57.507812 12.890625 56.011719 13.304688 Z M 58.761719 19.234375 C 60.03125 19.769531 60.257812 21.046875 59.273438 22.40625 C 58.800781 23.066406 58.492188 23.292969 57.796875 23.4375 C 56.074219 23.785156 54.964844 23.042969 54.988281 21.519531 C 54.988281 20.53125 55.5625 19.730469 56.605469 19.277344 C 57.507812 18.882812 57.878906 18.882812 58.761719 19.234375 Z M 58.761719 19.234375 "/>
<path style=" stroke:none;fill-rule:nonzero;fill:rgb(0%,0%,0%);fill-opacity:1;" d="M 74.757812 13.34375 C 72.480469 14.128906 70.738281 15.609375 69.917969 17.421875 C 69.628906 18.082031 67.476562 28.5 67.476562 29.285156 C 67.476562 29.386719 68.953125 29.449219 70.757812 29.449219 C 72.5625 29.449219 74.039062 29.40625 74.039062 29.347656 C 74.039062 29.285156 74.410156 27.183594 74.859375 24.652344 C 75.597656 20.53125 75.742188 20.039062 76.214844 19.605469 C 76.769531 19.109375 77.054688 19.050781 77.507812 19.335938 C 77.957031 19.625 77.875 20.492188 76.972656 25.1875 L 76.152344 29.449219 L 79.453125 29.40625 L 82.757812 29.347656 L 83.515625 25.125 C 84.316406 20.675781 84.625 19.75 85.445312 19.378906 C 86.078125 19.089844 86.058594 19.089844 86.429688 19.480469 C 86.675781 19.707031 86.714844 20.015625 86.632812 20.65625 C 86.511719 21.519531 85.421875 27.800781 85.199219 28.871094 L 85.074219 29.449219 L 88.375 29.449219 C 90.203125 29.449219 91.679688 29.429688 91.679688 29.386719 C 91.679688 29.367188 92.089844 27.164062 92.601562 24.507812 C 93.605469 19.253906 93.6875 18.121094 93.214844 16.535156 C 92.519531 14.1875 91.1875 13.160156 88.582031 13.015625 C 86.59375 12.890625 85.320312 13.199219 83.578125 14.230469 L 82.222656 15.035156 L 81.117188 14.1875 C 80.519531 13.734375 79.722656 13.28125 79.351562 13.179688 C 78.265625 12.851562 75.886719 12.953125 74.757812 13.34375 Z M 74.757812 13.34375 "/>
<path style=" stroke:none;fill-rule:nonzero;fill:rgb(0%,0%,0%);fill-opacity:1;" d="M 104.105469 13.28125 C 102.097656 13.839844 100.457031 14.828125 98.835938 16.453125 C 96.640625 18.679688 95.800781 20.757812 96.066406 23.3125 C 96.292969 25.617188 97.914062 27.925781 100.027344 28.953125 C 101.050781 29.46875 101.421875 29.53125 103.226562 29.550781 L 105.277344 29.550781 L 105.933594 26.566406 C 106.28125 24.917969 106.570312 23.558594 106.546875 23.519531 C 106.527344 23.496094 106.261719 23.558594 105.953125 23.683594 C 104.988281 24.054688 104.066406 23.929688 103.390625 23.351562 C 102.855469 22.921875 102.753906 22.675781 102.753906 21.933594 C 102.753906 20.820312 103.285156 20.121094 104.496094 19.667969 C 106.097656 19.050781 107.675781 19.789062 107.675781 21.148438 C 107.675781 21.644531 106.527344 28.398438 106.324219 29.078125 C 106.21875 29.429688 106.464844 29.449219 109.605469 29.449219 C 112.96875 29.449219 113.007812 29.449219 113.109375 28.976562 C 113.625 26.648438 114.648438 20.550781 114.648438 19.75 C 114.648438 17.894531 113.480469 15.652344 111.859375 14.414062 C 110.15625 13.097656 106.628906 12.601562 104.105469 13.28125 Z M 104.105469 13.28125 "/>
<path style=" stroke:none;fill-rule:nonzero;fill:rgb(0%,0%,0%);fill-opacity:1;" d="M 124.964844 13.28125 C 123.632812 13.695312 122.320312 14.539062 121.152344 15.753906 C 119.367188 17.566406 119.101562 18.246094 118.035156 23.785156 C 117.519531 26.503906 117.050781 28.894531 116.988281 29.078125 C 116.886719 29.429688 117.132812 29.449219 120.167969 29.449219 C 123.40625 29.449219 123.46875 29.449219 123.570312 28.976562 C 123.632812 28.726562 123.980469 26.648438 124.351562 24.363281 C 125.066406 20.078125 125.3125 19.335938 126.238281 18.90625 C 126.894531 18.617188 127.777344 19.152344 127.777344 19.851562 C 127.777344 20.121094 127.40625 22.304688 126.957031 24.710938 C 126.503906 27.121094 126.132812 29.179688 126.132812 29.265625 C 126.132812 29.367188 127.589844 29.449219 129.375 29.449219 L 132.636719 29.449219 L 133.519531 24.507812 C 134.175781 20.839844 134.359375 19.277344 134.277344 18.492188 C 133.988281 16.144531 132.226562 13.902344 130.175781 13.28125 C 128.902344 12.914062 126.132812 12.914062 124.964844 13.28125 Z M 124.964844 13.28125 "/>
<path style=" stroke:none;fill-rule:nonzero;fill:rgb(0%,0%,0%);fill-opacity:1;" d="M 155.359375 13.367188 C 150.5625 14.765625 147.21875 18.882812 147.503906 23.042969 C 147.628906 24.773438 148.203125 26.070312 149.433594 27.390625 C 150.890625 28.953125 152.183594 29.492188 154.746094 29.613281 L 156.859375 29.71875 L 157.082031 28.605469 C 158.007812 24.054688 158.066406 23.457031 157.738281 23.601562 C 157.554688 23.664062 156.980469 23.785156 156.449219 23.828125 C 155.546875 23.929688 155.421875 23.890625 154.726562 23.1875 C 154.089844 22.550781 154.007812 22.363281 154.128906 21.789062 C 154.355469 20.738281 154.808594 20.183594 155.8125 19.730469 C 157.351562 19.050781 158.765625 19.523438 159.054688 20.777344 C 159.15625 21.230469 158.292969 26.894531 157.820312 28.976562 L 157.71875 29.449219 L 164.46875 29.449219 L 164.671875 28.359375 C 165.882812 22.242188 166.167969 20.410156 166.066406 19.296875 C 165.839844 16.679688 163.8125 14.167969 161.269531 13.386719 C 159.605469 12.871094 157.082031 12.851562 155.359375 13.367188 Z M 155.359375 13.367188 "/>
<path style=" stroke:none;fill-rule:nonzero;fill:rgb(0%,0%,0%);fill-opacity:1;" d="M 139.363281 13.632812 C 139.21875 14.25 136.59375 29.140625 136.59375 29.304688 C 136.59375 29.386719 138.070312 29.449219 139.875 29.449219 C 141.679688 29.449219 143.15625 29.386719 143.15625 29.324219 C 143.15625 29.140625 146.050781 13.921875 146.152344 13.53125 C 146.253906 13.199219 146.007812 13.179688 142.871094 13.179688 C 139.507812 13.179688 139.464844 13.179688 139.363281 13.632812 Z M 139.363281 13.632812 "/>
<path style=" stroke:none;fill-rule:nonzero;fill:rgb(0%,0%,0%);fill-opacity:1;" d="M 19.382812 33.816406 C 19.339844 33.960938 18.972656 35.339844 18.5625 36.863281 C 18.171875 38.386719 17.78125 39.765625 17.742188 39.910156 C 17.660156 40.117188 17.863281 40.15625 18.5 40.117188 C 19.238281 40.054688 19.382812 39.972656 19.484375 39.539062 C 19.585938 39.085938 19.710938 39.023438 20.613281 39.023438 C 21.515625 39.023438 21.636719 39.085938 21.742188 39.539062 C 21.84375 39.972656 21.988281 40.054688 22.746094 40.117188 C 23.421875 40.179688 23.605469 40.117188 23.546875 39.910156 C 23.484375 39.765625 23.09375 38.285156 22.664062 36.59375 L 21.882812 33.566406 L 20.671875 33.566406 C 19.894531 33.566406 19.441406 33.648438 19.382812 33.816406 Z M 21.082031 36.429688 C 21.226562 37.046875 21.289062 37.582031 21.25 37.625 C 21.207031 37.6875 20.898438 37.6875 20.570312 37.644531 L 19.957031 37.582031 L 20.261719 36.265625 C 20.40625 35.546875 20.613281 35.050781 20.695312 35.132812 C 20.777344 35.234375 20.960938 35.8125 21.082031 36.429688 Z M 21.082031 36.429688 "/>
<path style=" stroke:none;fill-rule:nonzero;fill:rgb(0%,0%,0%);fill-opacity:1;" d="M 24.570312 33.691406 C 24.46875 33.773438 24.40625 35.257812 24.40625 37.007812 L 24.40625 40.15625 L 26.046875 40.15625 L 26.046875 38.304688 L 27.257812 38.304688 C 29.0625 38.304688 29.429688 37.933594 29.429688 36.058594 C 29.429688 34 29.144531 33.753906 26.621094 33.628906 C 25.574219 33.566406 24.652344 33.589844 24.570312 33.691406 Z M 27.566406 35.132812 C 27.789062 35.214844 27.894531 35.523438 27.894531 36.039062 C 27.894531 36.882812 27.667969 37.070312 26.640625 37.070312 C 26.066406 37.070312 26.046875 37.046875 26.046875 36.039062 C 26.046875 35.03125 26.066406 35.007812 26.640625 35.007812 C 26.96875 35.007812 27.378906 35.070312 27.566406 35.132812 Z M 27.566406 35.132812 "/>
<path style=" stroke:none;fill-rule:nonzero;fill:rgb(0%,0%,0%);fill-opacity:1;" d="M 30.578125 36.71875 C 30.128906 38.449219 29.738281 39.929688 29.738281 40.015625 C 29.738281 40.097656 30.109375 40.15625 30.539062 40.15625 C 31.277344 40.15625 31.359375 40.097656 31.480469 39.539062 C 31.605469 38.964844 31.667969 38.921875 32.609375 38.921875 C 33.554688 38.921875 33.617188 38.964844 33.738281 39.539062 C 33.863281 40.097656 33.945312 40.15625 34.683594 40.15625 C 35.113281 40.15625 35.480469 40.074219 35.480469 39.972656 C 35.480469 39.789062 34.210938 34.84375 33.921875 33.917969 C 33.839844 33.628906 33.574219 33.566406 32.632812 33.566406 L 31.441406 33.566406 Z M 33.226562 37.316406 C 33.226562 37.582031 33.0625 37.6875 32.609375 37.6875 C 32.261719 37.6875 31.996094 37.582031 31.996094 37.417969 C 31.996094 37.152344 32.34375 35.730469 32.550781 35.214844 C 32.671875 34.90625 33.207031 36.617188 33.226562 37.316406 Z M 33.226562 37.316406 "/>
<path style=" stroke:none;fill-rule:nonzero;fill:rgb(0%,0%,0%);fill-opacity:1;" d="M 36.507812 36.863281 L 36.507812 40.15625 L 38.148438 40.15625 L 38.148438 33.566406 L 36.507812 33.566406 Z M 36.507812 36.863281 "/>
<path style=" stroke:none;fill-rule:nonzero;fill:rgb(0%,0%,0%);fill-opacity:1;" d="M 39.378906 33.671875 C 39.378906 33.753906 39.664062 34.453125 40.015625 35.257812 L 40.648438 36.71875 L 39.992188 38.179688 C 39.644531 38.984375 39.296875 39.765625 39.234375 39.890625 C 39.152344 40.074219 39.378906 40.15625 39.972656 40.15625 C 40.8125 40.15625 40.8125 40.136719 41.386719 38.859375 L 41.960938 37.582031 L 42.476562 38.859375 L 42.96875 40.15625 L 43.828125 40.15625 C 44.320312 40.15625 44.710938 40.117188 44.710938 40.074219 C 44.710938 40.035156 44.382812 39.3125 43.992188 38.488281 C 43.605469 37.644531 43.277344 36.882812 43.277344 36.761719 C 43.277344 36.65625 43.5625 35.957031 43.890625 35.257812 C 44.238281 34.535156 44.507812 33.855469 44.507812 33.753906 C 44.507812 33.648438 44.15625 33.566406 43.726562 33.566406 C 42.949219 33.566406 42.90625 33.609375 42.433594 34.742188 L 41.921875 35.914062 L 41.511719 34.804688 C 41.101562 33.710938 41.058594 33.671875 40.21875 33.609375 C 39.769531 33.566406 39.378906 33.609375 39.378906 33.671875 Z M 39.378906 33.671875 "/>
<path style=" stroke:none;fill-rule:nonzero;fill:rgb(0%,0%,0%);fill-opacity:1;" d="M 46.351562 33.835938 C 46.066406 33.980469 45.738281 34.414062 45.59375 34.804688 C 45.285156 35.710938 45.265625 37.75 45.53125 38.757812 C 45.839844 39.871094 46.371094 40.15625 48.15625 40.15625 C 49.449219 40.15625 49.714844 40.097656 50.144531 39.664062 C 50.699219 39.109375 50.988281 37.417969 50.78125 35.894531 C 50.554688 34.390625 50.472656 34.207031 49.839844 33.875 C 49.121094 33.507812 47.050781 33.484375 46.351562 33.835938 Z M 49.019531 35.402344 C 49.121094 35.628906 49.222656 36.285156 49.222656 36.863281 C 49.222656 38.285156 48.957031 38.714844 48.136719 38.714844 C 47.171875 38.714844 46.96875 38.40625 46.96875 36.863281 C 46.96875 36.082031 47.070312 35.402344 47.214844 35.257812 C 47.625 34.84375 48.773438 34.949219 49.019531 35.402344 Z M 49.019531 35.402344 "/>
<path style=" stroke:none;fill-rule:nonzero;fill:rgb(0%,0%,0%);fill-opacity:1;" d="M 52.03125 33.710938 C 51.949219 33.773438 51.890625 35.257812 51.890625 37.007812 L 51.890625 40.15625 L 53.53125 40.15625 L 53.550781 37.726562 L 53.550781 35.320312 L 54.496094 37.726562 L 55.4375 40.15625 L 57.835938 40.15625 L 57.835938 33.566406 L 56.402344 33.566406 L 56.402344 35.976562 C 56.402344 37.460938 56.320312 38.304688 56.21875 38.203125 C 56.113281 38.078125 55.644531 37.007812 55.171875 35.773438 L 54.332031 33.566406 L 53.242188 33.566406 C 52.648438 33.566406 52.09375 33.628906 52.03125 33.710938 Z M 52.03125 33.710938 "/>
<path style=" stroke:none;fill-rule:nonzero;fill:rgb(0%,0%,0%);fill-opacity:1;" d="M 60.214844 34.640625 C 60.050781 35.234375 59.640625 36.71875 59.3125 37.933594 L 58.71875 40.15625 L 59.582031 40.15625 C 60.378906 40.15625 60.460938 40.117188 60.585938 39.539062 C 60.6875 38.964844 60.75 38.921875 61.632812 38.921875 C 62.492188 38.921875 62.59375 38.984375 62.78125 39.539062 C 62.984375 40.097656 63.109375 40.15625 63.828125 40.15625 C 64.503906 40.15625 64.625 40.097656 64.523438 39.789062 C 64.460938 39.601562 64.09375 38.121094 63.664062 36.492188 L 62.902344 33.566406 L 60.523438 33.566406 Z M 62.125 36.429688 C 62.246094 37.046875 62.328125 37.582031 62.265625 37.625 C 62.226562 37.667969 61.917969 37.6875 61.589844 37.644531 L 61.015625 37.582031 L 61.28125 36.285156 C 61.445312 35.566406 61.652344 35.050781 61.734375 35.152344 C 61.816406 35.234375 62 35.8125 62.125 36.429688 Z M 62.125 36.429688 "/>
<path style=" stroke:none;fill-rule:nonzero;fill:rgb(0%,0%,0%);fill-opacity:1;" d="M 65.632812 36.84375 L 65.632812 40.15625 L 67.375 40.15625 C 69.507812 40.15625 70.472656 39.808594 70.695312 38.984375 C 70.777344 38.675781 70.859375 37.605469 70.859375 36.59375 C 70.859375 34.925781 70.820312 34.761719 70.285156 34.246094 C 69.773438 33.734375 69.589844 33.671875 67.683594 33.609375 L 65.632812 33.527344 Z M 69.078125 35.257812 C 69.40625 35.585938 69.40625 38.140625 69.078125 38.46875 C 68.933594 38.613281 68.441406 38.714844 67.949219 38.714844 L 67.066406 38.714844 L 67.066406 35.007812 L 67.949219 35.007812 C 68.441406 35.007812 68.933594 35.113281 69.078125 35.257812 Z M 69.078125 35.257812 "/>
<path style=" stroke:none;fill-rule:nonzero;fill:rgb(0%,0%,0%);fill-opacity:1;" d="M 72.828125 33.855469 C 72.113281 34.246094 72.007812 34.617188 72.007812 37.027344 C 71.988281 39.003906 72.03125 39.167969 72.5 39.644531 C 72.933594 40.097656 73.179688 40.15625 74.53125 40.15625 C 75.84375 40.15625 76.152344 40.097656 76.625 39.664062 C 77.15625 39.230469 77.199219 39.046875 77.28125 37.355469 C 77.382812 35.195312 77.054688 34.101562 76.195312 33.773438 C 75.414062 33.484375 73.402344 33.527344 72.828125 33.855469 Z M 75.433594 35.257812 C 75.578125 35.402344 75.679688 36.082031 75.679688 36.863281 C 75.679688 38.40625 75.476562 38.714844 74.511719 38.714844 C 73.691406 38.714844 73.425781 38.285156 73.425781 36.863281 C 73.425781 35.441406 73.691406 35.007812 74.511719 35.007812 C 74.882812 35.007812 75.292969 35.113281 75.433594 35.257812 Z M 75.433594 35.257812 "/>
<path style=" stroke:none;fill-rule:nonzero;fill:rgb(0%,0%,0%);fill-opacity:1;" d="M 78.757812 33.980469 C 78.449219 34.289062 78.347656 34.660156 78.347656 35.484375 C 78.347656 36.78125 78.65625 37.171875 79.886719 37.378906 C 81.648438 37.667969 81.648438 37.667969 81.585938 38.261719 C 81.546875 38.59375 81.382812 38.839844 81.15625 38.882812 C 80.542969 39.003906 79.78125 38.738281 79.78125 38.386719 C 79.78125 38.160156 79.597656 38.097656 79.023438 38.140625 C 78.304688 38.203125 78.246094 38.242188 78.285156 38.820312 C 78.367188 39.828125 78.984375 40.15625 80.746094 40.15625 C 82.078125 40.15625 82.324219 40.097656 82.757812 39.644531 C 83.144531 39.273438 83.269531 38.921875 83.269531 38.203125 C 83.269531 36.925781 82.714844 36.347656 81.21875 36.183594 C 79.945312 36.019531 79.578125 35.773438 79.90625 35.257812 C 80.191406 34.78125 81.074219 34.699219 81.421875 35.09375 C 81.566406 35.277344 81.996094 35.421875 82.367188 35.421875 C 82.941406 35.421875 83.0625 35.339844 83.0625 35.007812 C 83.0625 34.761719 82.839844 34.351562 82.550781 34.082031 C 82.121094 33.628906 81.875 33.566406 80.601562 33.566406 C 79.433594 33.566406 79.085938 33.648438 78.757812 33.980469 Z M 78.757812 33.980469 "/>
<path style=" stroke:none;fill-rule:nonzero;fill:rgb(0%,0%,0%);fill-opacity:1;" d="M 87.371094 36.84375 L 87.371094 40.15625 L 88.070312 40.15625 C 88.765625 40.15625 88.785156 40.136719 88.847656 39.273438 L 88.910156 38.40625 L 90.203125 38.304688 C 91.902344 38.160156 92.292969 37.75 92.292969 36.019531 C 92.292969 35.070312 92.191406 34.722656 91.800781 34.269531 C 91.351562 33.734375 91.207031 33.691406 89.339844 33.609375 L 87.371094 33.527344 Z M 90.652344 35.421875 C 91.144531 36.347656 90.386719 37.234375 89.277344 37.027344 C 88.910156 36.964844 88.664062 35.894531 88.890625 35.296875 C 89.074219 34.84375 90.386719 34.925781 90.652344 35.421875 Z M 90.652344 35.421875 "/>
<path style=" stroke:none;fill-rule:nonzero;fill:rgb(0%,0%,0%);fill-opacity:1;" d="M 94.160156 33.855469 C 93.441406 34.246094 93.339844 34.617188 93.339844 37.027344 C 93.320312 39.003906 93.359375 39.167969 93.832031 39.644531 C 94.261719 40.097656 94.507812 40.15625 95.863281 40.15625 C 97.175781 40.15625 97.484375 40.097656 97.953125 39.664062 C 98.488281 39.230469 98.527344 39.046875 98.609375 37.355469 C 98.714844 35.195312 98.386719 34.101562 97.523438 33.773438 C 96.746094 33.484375 94.734375 33.527344 94.160156 33.855469 Z M 96.765625 35.257812 C 96.910156 35.402344 97.011719 36.082031 97.011719 36.863281 C 97.011719 38.40625 96.804688 38.714844 95.84375 38.714844 C 95.019531 38.714844 94.753906 38.285156 94.753906 36.863281 C 94.753906 35.441406 95.019531 35.007812 95.84375 35.007812 C 96.210938 35.007812 96.621094 35.113281 96.765625 35.257812 Z M 96.765625 35.257812 "/>
<path style=" stroke:none;fill-rule:nonzero;fill:rgb(0%,0%,0%);fill-opacity:1;" d="M 99.882812 36.863281 L 99.882812 40.15625 L 100.601562 40.15625 C 101.316406 40.15625 101.316406 40.15625 101.316406 39.230469 L 101.316406 38.304688 L 102.117188 38.304688 C 102.957031 38.304688 103.164062 38.574219 103.164062 39.683594 C 103.164062 40.097656 103.265625 40.15625 103.882812 40.15625 L 104.597656 40.15625 L 104.597656 39.148438 C 104.597656 38.285156 104.515625 38.058594 104.066406 37.707031 C 103.675781 37.398438 103.613281 37.273438 103.839844 37.273438 C 104.023438 37.273438 104.269531 37.089844 104.394531 36.882812 C 104.679688 36.328125 104.660156 34.742188 104.332031 34.308594 C 104.003906 33.855469 102.816406 33.589844 101.175781 33.566406 L 99.882812 33.566406 Z M 102.980469 35.441406 C 103.144531 35.773438 103.144531 36.019531 102.980469 36.390625 C 102.792969 36.800781 102.628906 36.882812 102.078125 36.820312 C 101.460938 36.761719 101.421875 36.699219 101.359375 35.875 L 101.296875 35.007812 L 102.015625 35.007812 C 102.546875 35.007812 102.792969 35.132812 102.980469 35.441406 Z M 102.980469 35.441406 "/>
<path style=" stroke:none;fill-rule:nonzero;fill:rgb(0%,0%,0%);fill-opacity:1;" d="M 108.496094 34.289062 C 108.496094 34.988281 108.515625 35.007812 109.316406 35.007812 L 110.136719 35.007812 L 110.136719 40.15625 L 111.574219 40.15625 L 111.574219 35.007812 L 112.394531 35.007812 C 113.191406 35.007812 113.214844 34.988281 113.214844 34.289062 L 113.214844 33.566406 L 108.496094 33.566406 Z M 108.496094 34.289062 "/>
<path style=" stroke:none;fill-rule:nonzero;fill:rgb(0%,0%,0%);fill-opacity:1;" d="M 114.238281 36.863281 L 114.238281 40.15625 L 118.75 40.15625 L 118.75 38.714844 L 115.675781 38.714844 L 115.675781 37.480469 L 118.546875 37.480469 L 118.546875 36.246094 L 115.652344 36.246094 L 115.714844 35.667969 C 115.777344 35.132812 115.816406 35.113281 117.273438 35.050781 L 118.75 34.988281 L 118.75 33.566406 L 114.238281 33.566406 Z M 114.238281 36.863281 "/>
<path style=" stroke:none;fill-rule:nonzero;fill:rgb(0%,0%,0%);fill-opacity:1;" d="M 120.800781 33.816406 C 120.515625 33.980469 120.1875 34.414062 120.042969 34.804688 C 119.734375 35.710938 119.714844 37.75 119.980469 38.757812 C 120.289062 39.828125 120.84375 40.15625 122.382812 40.15625 C 123.917969 40.15625 124.636719 39.664062 124.84375 38.46875 L 124.964844 37.6875 L 124.125 37.6875 C 123.425781 37.6875 123.285156 37.75 123.222656 38.140625 C 123.140625 38.757812 122.074219 38.921875 121.683594 38.386719 C 121.335938 37.914062 121.335938 35.8125 121.683594 35.339844 C 122.054688 34.84375 122.894531 34.988281 123.160156 35.585938 C 123.324219 35.976562 123.507812 36.039062 124.082031 36 C 124.761719 35.9375 124.800781 35.894531 124.738281 35.214844 C 124.65625 34.101562 124.105469 33.710938 122.605469 33.628906 C 121.808594 33.566406 121.109375 33.648438 120.800781 33.816406 Z M 120.800781 33.816406 "/>
<path style=" stroke:none;fill-rule:nonzero;fill:rgb(0%,0%,0%);fill-opacity:1;" d="M 126.074219 33.710938 C 125.992188 33.773438 125.929688 35.257812 125.929688 37.007812 L 125.929688 40.15625 L 127.570312 40.15625 L 127.570312 37.726562 L 127.589844 35.320312 L 128.535156 37.726562 L 129.476562 40.15625 L 131.878906 40.15625 L 131.878906 33.566406 L 130.441406 33.566406 L 130.441406 35.957031 C 130.441406 37.253906 130.359375 38.285156 130.277344 38.222656 C 130.175781 38.160156 129.703125 37.089844 129.230469 35.832031 L 128.351562 33.566406 L 127.285156 33.566406 C 126.6875 33.566406 126.132812 33.628906 126.074219 33.710938 Z M 126.074219 33.710938 "/>
<path style=" stroke:none;fill-rule:nonzero;fill:rgb(0%,0%,0%);fill-opacity:1;" d="M 134.011719 33.816406 C 133.3125 34.144531 133.109375 34.886719 133.109375 37.089844 C 133.109375 39.003906 133.148438 39.191406 133.621094 39.644531 C 134.050781 40.097656 134.296875 40.15625 135.652344 40.15625 C 136.964844 40.15625 137.269531 40.097656 137.742188 39.664062 C 138.277344 39.230469 138.316406 39.046875 138.398438 37.355469 C 138.503906 35.195312 138.175781 34.101562 137.3125 33.773438 C 136.613281 33.507812 134.5625 33.527344 134.011719 33.816406 Z M 136.554688 35.257812 C 136.695312 35.402344 136.800781 36.082031 136.800781 36.863281 C 136.800781 38.40625 136.59375 38.714844 135.628906 38.714844 C 134.808594 38.714844 134.542969 38.285156 134.542969 36.863281 C 134.542969 35.441406 134.808594 35.007812 135.628906 35.007812 C 136 35.007812 136.410156 35.113281 136.554688 35.257812 Z M 136.554688 35.257812 "/>
<path style=" stroke:none;fill-rule:nonzero;fill:rgb(0%,0%,0%);fill-opacity:1;" d="M 139.671875 36.863281 L 139.671875 40.15625 L 143.976562 40.15625 L 143.976562 38.738281 L 142.605469 38.675781 L 141.210938 38.613281 L 141.148438 36.082031 L 141.085938 33.566406 L 139.671875 33.566406 Z M 139.671875 36.863281 "/>
<path style=" stroke:none;fill-rule:nonzero;fill:rgb(0%,0%,0%);fill-opacity:1;" d="M 145.617188 33.835938 C 144.777344 34.269531 144.574219 34.90625 144.632812 37.128906 C 144.695312 39.085938 144.714844 39.191406 145.289062 39.683594 C 145.84375 40.15625 146.027344 40.199219 147.484375 40.117188 C 149.699219 40.035156 149.804688 39.890625 149.886719 37.253906 C 149.96875 34.949219 149.761719 34.164062 148.984375 33.792969 C 148.304688 33.484375 146.253906 33.507812 145.617188 33.835938 Z M 148.285156 35.546875 C 148.550781 36.226562 148.550781 37.523438 148.285156 38.203125 C 148.101562 38.675781 148 38.738281 147.21875 38.675781 L 146.335938 38.613281 L 146.273438 37.109375 C 146.214844 35.359375 146.398438 35.007812 147.382812 35.007812 C 147.957031 35.007812 148.121094 35.113281 148.285156 35.546875 Z M 148.285156 35.546875 "/>
<path style=" stroke:none;fill-rule:nonzero;fill:rgb(0%,0%,0%);fill-opacity:1;" d="M 151.914062 33.980469 C 150.707031 34.949219 150.582031 38.449219 151.710938 39.664062 C 152.183594 40.179688 152.285156 40.199219 153.84375 40.117188 C 155.933594 40.035156 156.285156 39.703125 156.285156 37.871094 L 156.285156 36.65625 L 155.15625 36.65625 C 154.089844 36.65625 154.027344 36.675781 154.027344 37.171875 C 154.027344 37.5625 154.128906 37.6875 154.457031 37.6875 C 154.765625 37.6875 154.867188 37.789062 154.808594 38.140625 C 154.746094 38.550781 154.621094 38.613281 153.71875 38.613281 L 152.695312 38.613281 L 152.632812 37.109375 C 152.59375 36.164062 152.675781 35.484375 152.816406 35.296875 C 153.125 34.90625 154.316406 34.925781 154.644531 35.320312 C 154.785156 35.484375 155.21875 35.628906 155.585938 35.628906 C 156.304688 35.628906 156.46875 35.320312 156.160156 34.496094 C 155.792969 33.546875 152.921875 33.199219 151.914062 33.980469 Z M 151.914062 33.980469 "/>
<path style=" stroke:none;fill-rule:nonzero;fill:rgb(0%,0%,0%);fill-opacity:1;" d="M 157.71875 36.863281 L 157.71875 40.15625 L 159.15625 40.15625 L 159.15625 33.566406 L 157.71875 33.566406 Z M 157.71875 36.863281 "/>
<path style=" stroke:none;fill-rule:nonzero;fill:rgb(0%,0%,0%);fill-opacity:1;" d="M 161.105469 36.492188 C 160.671875 38.121094 160.285156 39.601562 160.242188 39.808594 C 160.140625 40.097656 160.261719 40.15625 160.980469 40.15625 C 161.761719 40.15625 161.84375 40.117188 161.964844 39.539062 C 162.066406 38.964844 162.128906 38.921875 163.09375 38.921875 C 164.035156 38.921875 164.097656 38.964844 164.222656 39.539062 C 164.324219 40.097656 164.40625 40.15625 165.125 40.15625 C 165.636719 40.15625 165.921875 40.054688 165.921875 39.890625 C 165.921875 39.765625 165.554688 38.304688 165.125 36.65625 L 164.34375 33.671875 L 161.882812 33.546875 Z M 163.523438 36.410156 L 163.8125 37.6875 L 163.132812 37.6875 C 162.355469 37.6875 162.375 37.726562 162.664062 36.449219 C 163.074219 34.597656 163.113281 34.597656 163.523438 36.410156 Z M 163.523438 36.410156 "/>
</g>
</svg>
